<mxfile host="app.diagrams.net" agent="Mozilla/5.0 (Windows NT 10.0; Win64; x64) AppleWebKit/537.36 (KHTML, like Gecko) Chrome/128.0.0.0 Safari/537.36" version="24.7.5">
  <diagram name="Page-1" id="17xLx5Jpj_yAPQxF6Sxz">
    <mxGraphModel dx="2412" dy="1910" grid="1" gridSize="10" guides="1" tooltips="1" connect="1" arrows="1" fold="1" page="1" pageScale="1" pageWidth="850" pageHeight="1100" math="0" shadow="0">
      <root>
        <mxCell id="0" />
        <mxCell id="1" parent="0" />
        <mxCell id="ru2hNwoar7phW9bpmIqV-4" value="" style="rounded=0;whiteSpace=wrap;html=1;fillColor=none;" parent="1" vertex="1">
          <mxGeometry x="20" y="10" width="760" height="480" as="geometry" />
        </mxCell>
        <mxCell id="EuqJdyhRISb5Iu6oAzzc-5" value="" style="rounded=0;whiteSpace=wrap;html=1;dashed=1;strokeColor=#ffffff;" parent="1" vertex="1">
          <mxGeometry x="-60" y="-40" width="920" height="600" as="geometry" />
        </mxCell>
        <mxCell id="Xm3TRK-vp7aeZ2DEdS6a-7" value="" style="endArrow=none;html=1;rounded=0;entryX=0;entryY=0.201;entryDx=0;entryDy=0;entryPerimeter=0;exitX=0.998;exitY=0.199;exitDx=0;exitDy=0;exitPerimeter=0;" parent="1" source="EuqJdyhRISb5Iu6oAzzc-5" target="EuqJdyhRISb5Iu6oAzzc-5" edge="1">
          <mxGeometry width="50" height="50" relative="1" as="geometry">
            <mxPoint x="810" y="78" as="sourcePoint" />
            <mxPoint x="590" y="196.40000000000055" as="targetPoint" />
          </mxGeometry>
        </mxCell>
        <mxCell id="Xm3TRK-vp7aeZ2DEdS6a-9" value="Interfaz Usuarios" style="rounded=0;whiteSpace=wrap;html=1;fillColor=#d5e8d4;strokeColor=#82b366;" parent="1" vertex="1">
          <mxGeometry x="40" y="100" width="720" height="60" as="geometry" />
        </mxCell>
        <mxCell id="Xm3TRK-vp7aeZ2DEdS6a-11" value="Modelo Aprendido" style="rounded=0;whiteSpace=wrap;html=1;fillColor=#dae8fc;strokeColor=#6c8ebf;" parent="1" vertex="1">
          <mxGeometry x="40" y="200" width="160" height="60" as="geometry" />
        </mxCell>
        <mxCell id="Xm3TRK-vp7aeZ2DEdS6a-12" value="Módulo de Consultas" style="rounded=0;whiteSpace=wrap;html=1;fillColor=#d5e8d4;strokeColor=#82b366;" parent="1" vertex="1">
          <mxGeometry x="230" y="200" width="160" height="60" as="geometry" />
        </mxCell>
        <mxCell id="Xm3TRK-vp7aeZ2DEdS6a-13" value="Módulo de ABM" style="rounded=0;whiteSpace=wrap;html=1;fillColor=#d5e8d4;strokeColor=#82b366;" parent="1" vertex="1">
          <mxGeometry x="420" y="200" width="160" height="60" as="geometry" />
        </mxCell>
        <mxCell id="Xm3TRK-vp7aeZ2DEdS6a-14" value="Sistema que genera el modelo" style="rounded=0;whiteSpace=wrap;html=1;fillColor=#dae8fc;strokeColor=#6c8ebf;" parent="1" vertex="1">
          <mxGeometry x="600" y="200" width="160" height="60" as="geometry" />
        </mxCell>
        <mxCell id="Xm3TRK-vp7aeZ2DEdS6a-19" value="Dataset&lt;div&gt;&lt;br&gt;&lt;/div&gt;" style="sketch=0;pointerEvents=1;shadow=0;dashed=0;html=1;labelPosition=center;verticalLabelPosition=bottom;verticalAlign=top;outlineConnect=0;align=center;shape=mxgraph.office.users.csv_file;fillColor=#dae8fc;strokeColor=#6c8ebf;" parent="1" vertex="1">
          <mxGeometry x="650.5" y="320" width="59" height="43" as="geometry" />
        </mxCell>
        <mxCell id="Xm3TRK-vp7aeZ2DEdS6a-22" value="" style="endArrow=classic;html=1;rounded=0;exitX=0.5;exitY=1;exitDx=0;exitDy=0;" parent="1" source="Xm3TRK-vp7aeZ2DEdS6a-14" target="Xm3TRK-vp7aeZ2DEdS6a-19" edge="1">
          <mxGeometry width="50" height="50" relative="1" as="geometry">
            <mxPoint x="330" y="280" as="sourcePoint" />
            <mxPoint x="420" y="340" as="targetPoint" />
          </mxGeometry>
        </mxCell>
      </root>
    </mxGraphModel>
  </diagram>
</mxfile>
